# xmcd
#
# Track frame offsets: 
#        150
#        28535
#        56310
#        71697
#        91955
#        126747
#        152846
#        176554
#        201401
#        233274
#        265378
#        291077
#        315906
#
# Disc length: 4541 seconds
#
# Revision: 1
# Processed by: cddbd v1.5.2PL0 Copyright (c) Steve Scherf et al.
# Submitted via: ExactAudioCopyFreeDBPlugin 1.0
#
DISCID=b311bb0d
DTITLE=Perry Rhodan - Silber Edition 19 - Das zweite Imperium [CD 7)
DYEAR=2009
DGENRE=Hörbuch
TTITLE0=Kapitel 17 - 09
TTITLE1=Kapitel 17 - 10
TTITLE2=Kapitel 17 - 11
TTITLE3=Kapitel 17 - 12
TTITLE4=Kapitel 18 - 01
TTITLE5=Kapitel 18 - 02
TTITLE6=Kapitel 18 - 03
TTITLE7=Kapitel 18 - 04
TTITLE8=Kapitel 18 - 05
TTITLE9=Kapitel 18 - 06
TTITLE10=Kapitel 18 - 07
TTITLE11=Kapitel 18 - 08
TTITLE12=Kapitel 18 - 09
EXTD=
EXTT0=
EXTT1=
EXTT2=
EXTT3=
EXTT4=
EXTT5=
EXTT6=
EXTT7=
EXTT8=
EXTT9=
EXTT10=
EXTT11=
EXTT12=
PLAYORDER=
